<svg xmlns="http://www.w3.org/2000/svg" viewBox="0 0 34.86 32.43"><defs><style>.cls-1{fill:#1a1a1a;}</style></defs><title>bin</title><g id="Layer_2" data-name="Layer 2"><g id="Layer_1-2" data-name="Layer 1"><path class="cls-1" d="M34.18,3.49H25.76V1.82A1.83,1.83,0,0,0,23.94,0H10.63A1.83,1.83,0,0,0,8.81,1.82V3.49H.68a.68.68,0,0,0,0,1.37h4.1V29.46a3,3,0,0,0,3,3H26.83a3,3,0,0,0,3-3V4.85h4.39a.68.68,0,0,0,0-1.37Zm-24-1.66a.46.46,0,0,1,.46-.46H23.94a.46.46,0,0,1,.46.46V3.49H10.18ZM28.42,29.46a1.6,1.6,0,0,1-1.6,1.59H7.75a1.6,1.6,0,0,1-1.6-1.59V4.85H28.42Z"/><path class="cls-1" d="M11.35,9.49a.68.68,0,0,0-.68.68v16a.68.68,0,0,0,1.37,0v-16A.68.68,0,0,0,11.35,9.49Z"/><path class="cls-1" d="M17.32,9.49a.68.68,0,0,0-.68.68v16a.68.68,0,0,0,1.37,0v-16A.68.68,0,0,0,17.32,9.49Z"/><path class="cls-1" d="M23.24,9.49a.68.68,0,0,0-.68.68v16a.68.68,0,1,0,1.37,0v-16A.68.68,0,0,0,23.24,9.49Z"/></g></g></svg>