<?xml version="1.0"?>
<svg width="64" height="64" xmlns="http://www.w3.org/2000/svg">

 <g>
  <title>background</title>
  <rect fill="none" id="canvas_background" height="402" width="582" y="-1" x="-1"/>
 </g>
 <g>
  <title>Layer 1</title>
  <polygon fill="#ffffff" points="24.5 22.9 27.5 22.9 27.5 46.9 24.5 46.9" id="Fill-6" class="st0"/>
  <polygon fill="#ffffff" points="30.5 22.9 33.5 22.9 33.5 46.9 30.5 46.9" id="Fill-7" class="st0"/>
  <polygon fill="#ffffff" points="36.5 22.9 39.5 22.9 39.5 46.9 36.5 46.9" id="Fill-8" class="st0"/>
  <polygon fill="#ffffff" points="12.5 13.9 51.5 13.9 51.5 16.9 12.5 16.9" id="Fill-9" class="st0"/>
  <path fill="#ffffff" id="Fill-10" d="m39.399994,15.399994l-2.800003,0l0,-3c0,-0.900009 -0.699997,-1.600006 -1.600006,-1.600006l-6,0c-0.899994,0 -1.599991,0.699997 -1.599991,1.600006l0,3l-2.800003,0l0,-3c0,-2.400009 2,-4.400009 4.399994,-4.400009l6,0c2.400009,0 4.400009,2 4.400009,4.400009l0,3" class="st0"/>
  <path fill="#ffffff" id="Fill-11" d="m41,55.899994l-18,0c-2.399994,0 -4.5,-2 -4.699997,-4.400009l-2.800003,-36l3,-0.199997l2.800003,36c0.099991,0.900009 0.899994,1.600006 1.699997,1.600006l18,0c0.899994,0 1.699997,-0.800003 1.699997,-1.600006l2.800003,-36l3,0.199997l-2.800003,36c-0.199997,2.500015 -2.300003,4.400009 -4.699997,4.400009" class="st0"/>
 </g>
</svg>