<?xml version="1.0"?>
<svg width="45" height="45" xmlns="http://www.w3.org/2000/svg">

 <g>
  <title>background</title>
  <rect fill="none" id="canvas_background" height="402" width="582" y="-1" x="-1"/>
 </g>
 <g>
  <title>Layer 1</title>
  <rect id="svg_2" y="4.875" x="23.7" width="11" transform="matrix(-0.7071 -0.7072 0.7072 -0.7071 38.2666 48.6029)" height="23" fill="#636b6f"/>
  <path id="svg_3" fill="#636b6f" d="m44.087002,3.686l-2.494003,-2.494c-1.376999,-1.377 -3.609997,-1.377 -4.987,0l-1.75,1.748l7.778,7.778l1.749001,-1.749001c1.378002,-1.376 1.082001,-3.906 -0.295998,-5.283z"/>
  <polygon id="svg_4" points="16,22.229 16,30 23.246,30  " fill="#636b6f"/>
  <path id="svg_5" fill="#636b6f" d="m29,40l-24,0l0,-24l12.555,0l5,-5l-19.055,0c-1.657,0 -3.5,0.843 -3.5,2.5l0,28c0,1.655998 1.843,3.5 3.5,3.5l28,0c1.655998,0 2.5,-1.844002 2.5,-3.5l0,-17.903999l-5,5l0,11.403999z"/>
 </g>
</svg>