<svg xmlns="http://www.w3.org/2000/svg" viewBox="0 0 35.34 33.79"><defs><style>.cls-1{fill:#1a1a1a;}</style></defs><title>filled_star</title><g id="Layer_2" data-name="Layer 2"><g id="Layer_1-2" data-name="Layer 1"><path class="cls-1" d="M34.79,14.64a1.82,1.82,0,0,0-1-3.11L24,10.11a.46.46,0,0,1-.34-.25L19.3,1A1.82,1.82,0,0,0,16,1L11.67,9.86a.46.46,0,0,1-.34.25L1.56,11.53a1.82,1.82,0,0,0-1,3.11l7.06,6.89a.46.46,0,0,1,.13.4L6.08,31.65a1.82,1.82,0,0,0,2.64,1.92L17.46,29a.46.46,0,0,1,.42,0l8.73,4.59a1.8,1.8,0,0,0,.85.21,1.83,1.83,0,0,0,1.8-2.13l-1.67-9.72a.46.46,0,0,1,.13-.4Z"/></g></g></svg>