<svg xmlns="http://www.w3.org/2000/svg" viewBox="0 0 34.08 35.18"><defs><style>.cls-1{fill:#1a1a1a;}</style></defs><title>home</title><g id="Layer_2" data-name="Layer 2"><g id="Layer_1-2" data-name="Layer 1"><path class="cls-1" d="M33.76,15.13,17.88.33a1.23,1.23,0,0,0-1.67,0L.32,15.13A1,1,0,0,0,1,16.88H2V34a1.23,1.23,0,0,0,1.23,1.23H12.1A1.23,1.23,0,0,0,13.32,34V22.48h7.44V34A1.23,1.23,0,0,0,22,35.18h8.88A1.23,1.23,0,0,0,32.09,34V16.88h1a1,1,0,0,0,.69-1.75Zm-2.35.38a.68.68,0,0,0-.68.68V33.81h-8.6V22.34a1.23,1.23,0,0,0-1.23-1.22H13.18A1.23,1.23,0,0,0,12,22.34V33.81H3.36V16.19a.68.68,0,0,0-.68-.68H1.92L17,1.42,32.16,15.51Z"/></g></g></svg>