<svg xmlns="http://www.w3.org/2000/svg" viewBox="0 0 30.73 34.97"><defs><style>.cls-1{fill:#1a1a1a;}</style></defs><title>person</title><g id="Layer_2" data-name="Layer 2"><g id="Layer_1-2" data-name="Layer 1"><path class="cls-1" d="M29.24,28.08,20.7,23a1.67,1.67,0,0,1-.82-1.43v-.33a1.67,1.67,0,0,1,.71-1.36,9,9,0,0,0,3.8-7.35V7.48c0-3.52-2.26-6.11-6.2-7.12a11.15,11.15,0,0,0-5.63,0c-3.94,1-6.2,3.61-6.2,7.12v5.09a9,9,0,0,0,3.8,7.35,1.67,1.67,0,0,1,.71,1.36v.32A1.67,1.67,0,0,1,10,23l-8.51,4.9A3,3,0,0,0,0,30.56V33.7A1.27,1.27,0,0,0,1.27,35H29.44a1.27,1.27,0,0,0,1.27-1.26l0-3A3,3,0,0,0,29.24,28.08Z"/></g></g></svg>