<svg xmlns="http://www.w3.org/2000/svg" viewBox="0 0 32.46 32.46"><defs><style>.cls-1{fill:#1a1a1a;}</style></defs><title>search</title><g id="Layer_2" data-name="Layer 2"><g id="Layer_1-2" data-name="Layer 1"><path class="cls-1" d="M31.64,27.71,24,20A13,13,0,1,0,20,24l7.69,7.69a2.78,2.78,0,0,0,3.93-3.93ZM4.78,21.24a11.64,11.64,0,1,1,17.94-1.8l-.19.28a11.85,11.85,0,0,1-1.28,1.52q-.35.35-.73.67l-.08.06c-.23.19-.47.38-.71.55l-.28.19A11.65,11.65,0,0,1,4.78,21.24Zm25.9,9.44a1.41,1.41,0,0,1-2,0l-7.53-7.53.1-.09c.33-.27.65-.56,1-.86s.59-.62.86-1l.09-.1,7.53,7.53A1.41,1.41,0,0,1,30.68,30.68Z"/></g></g></svg>