<svg xmlns="http://www.w3.org/2000/svg" viewBox="0 0 43.19 30.42"><defs><style>.cls-1{fill:#1a1a1a;}</style></defs><title>stream</title><g id="Layer_2" data-name="Layer 2"><g id="Layer_1-2" data-name="Layer 1"><path class="cls-1" d="M33.7,30.42A16.65,16.65,0,0,0,33,.05a.68.68,0,0,0-.82.23.69.69,0,0,0-.08.14.68.68,0,0,0,.36.9,15.27,15.27,0,0,1,1,27.69"/><path class="cls-1" d="M30.3,27.38a13.32,13.32,0,0,0-.55-24.29.55.55,0,0,0-.65.18.56.56,0,0,0-.06.11.55.55,0,0,0,.29.72,12.22,12.22,0,0,1,.8,22.15"/><path class="cls-1" d="M26.48,25.86A10.65,10.65,0,0,0,26,6.43a.44.44,0,0,0-.52.14l-.05.09a.44.44,0,0,0,.23.57A9.77,9.77,0,0,1,26.34,25"/><path class="cls-1" d="M9.71,29a15.28,15.28,0,0,1,1-27.69.68.68,0,0,0,.36-.9A.69.69,0,0,0,11,.28a.68.68,0,0,0-.82-.23,16.64,16.64,0,0,0-.68,30.37"/><path class="cls-1" d="M13.07,26.25a12.22,12.22,0,0,1,.8-22.15.55.55,0,0,0,.29-.72.56.56,0,0,0-.06-.11.55.55,0,0,0-.65-.18,13.31,13.31,0,0,0-.55,24.29"/><path class="cls-1" d="M16.85,25a9.78,9.78,0,0,1,.64-17.72.44.44,0,0,0,.23-.57l-.05-.09a.44.44,0,0,0-.52-.14,10.65,10.65,0,0,0-.44,19.44"/></g></g></svg>