<svg xmlns="http://www.w3.org/2000/svg" viewBox="0 0 28.84 34.03"><defs><style>.cls-1{fill:#1a1a1a;}</style></defs><title>documents</title><g id="Layer_2" data-name="Layer 2"><g id="Layer_1-2" data-name="Layer 1"><path class="cls-1" d="M28.84,8.27a.64.64,0,0,0,0-.11.68.68,0,0,0,0-.16.66.66,0,0,0-.08-.12.67.67,0,0,0-.06-.09l0,0h0L21,.2a.67.67,0,0,0-.2-.13l-.06,0L20.6,0H5.17a1.7,1.7,0,0,0-1.7,1.7V3.11H1.7A1.7,1.7,0,0,0,0,4.81V32.33A1.7,1.7,0,0,0,1.7,34h22a1.7,1.7,0,0,0,1.7-1.7V30.92h1.77a1.7,1.7,0,0,0,1.7-1.7V8.29ZM26.5,7.59H21.57a.33.33,0,0,1-.33-.33V2.33ZM24,32.33a.33.33,0,0,1-.33.33H1.7a.33.33,0,0,1-.33-.33V4.81a.33.33,0,0,1,.33-.33H3.47V29.22a1.7,1.7,0,0,0,1.7,1.7H24Zm3.13-2.78h-22a.33.33,0,0,1-.33-.33V1.7a.33.33,0,0,1,.33-.33h14.7V7.26A1.7,1.7,0,0,0,21.57,9h5.9V29.22A.33.33,0,0,1,27.13,29.55Z"/><path class="cls-1" d="M7.85,7h8.3a.68.68,0,0,0,0-1.37H7.85A.68.68,0,0,0,7.85,7Z"/><path class="cls-1" d="M20.55,11.89H7.85a.68.68,0,0,0,0,1.37h12.7a.68.68,0,0,0,0-1.37Z"/></g></g></svg>