<svg xmlns="http://www.w3.org/2000/svg" viewBox="0 0 36.01 29.61"><defs><style>.cls-1{fill:#1a1a1a;}</style></defs><title>filter</title><g id="Layer_2" data-name="Layer 2"><g id="Layer_1-2" data-name="Layer 1"><path class="cls-1" d="M35.8,1.89A2.93,2.93,0,0,0,33,0H3A2.94,2.94,0,0,0,.23,1.87,2.94,2.94,0,0,0,.92,5.13l.06,0L12.28,14v8.76a1.45,1.45,0,0,0,.61,1.18l0,0,8.67,5.43a1.44,1.44,0,0,0,.82.26,1.45,1.45,0,0,0,1.45-1.45V14L35,5.2l0,0A2.93,2.93,0,0,0,35.8,1.89ZM34.15,4.15,22.76,13.1a.68.68,0,0,0-.26.54V28.16a.09.09,0,0,1-.09.09l0,0,0,0-8.65-5.42a.08.08,0,0,1,0-.06V13.63a.68.68,0,0,0-.26-.54l-11.54-9A1.62,1.62,0,0,1,3,1.37H33a1.59,1.59,0,0,1,1.51,1A1.59,1.59,0,0,1,34.15,4.15Z"/></g></g></svg>