<svg xmlns="http://www.w3.org/2000/svg" viewBox="0 0 33.36 21.52"><defs><style>.cls-1{fill:#1a1a1a;}</style></defs><title>glasses</title><g id="Layer_2" data-name="Layer 2"><g id="Layer_1-2" data-name="Layer 1"><path class="cls-1" d="M32.67.19A.68.68,0,0,0,32,.87V9.77a7.46,7.46,0,0,0-13.53,3.61H14.94A7.46,7.46,0,0,0,1.37,9.82V.68A.68.68,0,0,0,0,.68V13.87a.67.67,0,0,0,0,.21,7.46,7.46,0,0,0,14.89.67h3.53a7.46,7.46,0,0,0,14.89-.68V.87A.68.68,0,0,0,32.67.19Zm-25.17,20a6.1,6.1,0,1,1,6.1-6.1A6.1,6.1,0,0,1,7.51,20.16Zm18.39,0a6.1,6.1,0,1,1,6.1-6.1A6.1,6.1,0,0,1,25.89,20.16Z"/></g></g></svg>