<svg xmlns="http://www.w3.org/2000/svg" viewBox="0 0 24.05 36.01"><defs><style>.cls-1{fill:#1a1a1a;}</style></defs><title>map_pin</title><g id="Layer_2" data-name="Layer 2"><g id="Layer_1-2" data-name="Layer 1"><path class="cls-1" d="M17.08,11.32A5.05,5.05,0,1,0,12,16.37,5.06,5.06,0,0,0,17.08,11.32Zm-8.74,0A3.69,3.69,0,1,1,12,15,3.69,3.69,0,0,1,8.34,11.32Z"/><path class="cls-1" d="M17.16,25.83C20.45,21.41,24,15.74,24,12A12,12,0,1,0,0,12c0,3.71,3.6,9.39,6.89,13.8-3.41.93-5.49,2.71-5.49,4.76C1.39,33.63,6.06,36,12,36s10.63-2.38,10.63-5.42C22.65,28.54,20.57,26.76,17.16,25.83ZM5.59,21.6C2.83,17.43,1.37,14.11,1.37,12a10.66,10.66,0,1,1,21.31,0c0,2.09-1.46,5.4-4.22,9.58a92.5,92.5,0,0,1-6.2,8.19.31.31,0,0,1-.47,0A92.5,92.5,0,0,1,5.59,21.6ZM18.76,33.32A16.1,16.1,0,0,1,12,34.65a16.1,16.1,0,0,1-6.74-1.32c-1.6-.76-2.52-1.76-2.52-2.73,0-1.46,2-2.86,5-3.58,1.13,1.46,2.17,2.73,3,3.66a1.68,1.68,0,0,0,2.56,0c.79-.93,1.83-2.2,3-3.66,3,.71,5,2.12,5,3.58C21.29,31.56,20.37,32.56,18.76,33.32Z"/></g></g></svg>