<svg xmlns="http://www.w3.org/2000/svg" viewBox="0 0 31.52 31.52"><defs><style>.cls-1{fill:#1a1a1a;}</style></defs><title>pencil</title><g id="Layer_2" data-name="Layer 2"><g id="Layer_1-2" data-name="Layer 1"><path class="cls-1" d="M30.29,1.22a4.19,4.19,0,0,0-5.92,0L22.74,2.86,2.05,23.55l0,0a.67.67,0,0,0-.1.15l0,.05a.66.66,0,0,0-.07.11L0,30.65a.68.68,0,0,0,.66.86l.18,0,6.76-1.81a.65.65,0,0,0,.11-.06l0,0a.68.68,0,0,0,.16-.11l0,0L28.66,8.77l1.64-1.64a4.19,4.19,0,0,0,0-5.92ZM1.65,29.86l1.2-4.48,3.28,3.28ZM7.49,28l-4-4L23.22,4.31l4,4ZM29.33,6.17,28.17,7.32l-4-4,1.15-1.15a2.82,2.82,0,0,1,4,4Z"/></g></g></svg>