<svg xmlns="http://www.w3.org/2000/svg" viewBox="0 0 33.95 33.95"><defs><style>.cls-1{fill:#1a1a1a;}</style></defs><title>settings</title><g id="Layer_2" data-name="Layer 2"><g id="Layer_1-2" data-name="Layer 1"><path class="cls-1" d="M17.09,9.73a7.47,7.47,0,1,0,7.47,7.47A7.48,7.48,0,0,0,17.09,9.73Zm0,13.58A6.11,6.11,0,1,1,23.2,17.2,6.11,6.11,0,0,1,17.09,23.31Z"/><path class="cls-1" d="M31.65,12h-.51a.93.93,0,0,1-.66-1.59l.36-.36a2.3,2.3,0,0,0,0-3.25L27.11,3.11a2.3,2.3,0,0,0-3.25,0l-.36.36a.9.9,0,0,1-.65.28,1,1,0,0,1-.66-.26.9.9,0,0,1-.29-.68V2.3A2.3,2.3,0,0,0,19.61,0H14.34A2.3,2.3,0,0,0,12,2.3v.64a.93.93,0,0,1-.94.94.9.9,0,0,1-.65-.28l-.36-.36a2.3,2.3,0,0,0-3.25,0L3.11,7a2.3,2.3,0,0,0,0,3.25l.23.23A.93.93,0,0,1,2.68,12H2.3A2.3,2.3,0,0,0,0,14.34v5.27a2.3,2.3,0,0,0,2.3,2.3h.51a.93.93,0,0,1,.66,1.59l-.36.36a2.3,2.3,0,0,0,0,3.25l3.73,3.73a2.3,2.3,0,0,0,3.25,0l.36-.36a.9.9,0,0,1,.65-.28.93.93,0,0,1,.94.94v.51a2.3,2.3,0,0,0,2.3,2.3h5.27a2.3,2.3,0,0,0,2.3-2.3v-.38a.93.93,0,0,1,.94-.94.9.9,0,0,1,.65.28l.36.36a2.3,2.3,0,0,0,3.25,0l3.73-3.73a2.3,2.3,0,0,0,0-3.25l-.49-.49A.93.93,0,0,1,31,21.91h.64a2.3,2.3,0,0,0,2.3-2.3V14.34A2.3,2.3,0,0,0,31.65,12Zm.93,7.57a.93.93,0,0,1-.93.93H31a2.3,2.3,0,0,0-1.63,3.93l.49.49a.93.93,0,0,1,0,1.32L26.15,30a.93.93,0,0,1-1.32,0l-.36-.36A2.27,2.27,0,0,0,22.85,29a2.31,2.31,0,0,0-2.31,2.3v.38a.93.93,0,0,1-.93.93H14.34a.93.93,0,0,1-.93-.93v-.51a2.31,2.31,0,0,0-2.31-2.3,2.27,2.27,0,0,0-1.61.68l-.36.36a.93.93,0,0,1-1.32,0L4.07,26.15a.93.93,0,0,1,0-1.32l.36-.36a2.3,2.3,0,0,0-1.63-3.93H2.3a.93.93,0,0,1-.93-.93V14.34a.93.93,0,0,1,.93-.93h.38A2.3,2.3,0,0,0,4.31,9.48l-.23-.23a.93.93,0,0,1,0-1.32L7.8,4.2a.93.93,0,0,1,1.32,0l.36.36a2.27,2.27,0,0,0,1.61.68,2.31,2.31,0,0,0,2.31-2.3V2.3a.93.93,0,0,1,.93-.93h5.27a.93.93,0,0,1,.93.93v.51a2.26,2.26,0,0,0,.72,1.67,2.36,2.36,0,0,0,1.59.63,2.27,2.27,0,0,0,1.61-.68l.36-.36a.93.93,0,0,1,1.32,0L29.87,7.8a.93.93,0,0,1,0,1.32l-.36.36a2.3,2.3,0,0,0,1.63,3.93h.51a.93.93,0,0,1,.93.93Z"/></g></g></svg>