<svg xmlns="http://www.w3.org/2000/svg" viewBox="0 0 35.29 32.01"><defs><style>.cls-1{fill:#1a1a1a;}</style></defs><title>share</title><g id="Layer_2" data-name="Layer 2"><g id="Layer_1-2" data-name="Layer 1"><path class="cls-1" d="M29.7,9.57a5.59,5.59,0,0,0-4.9,2.91L11,7.05a5.58,5.58,0,1,0-.52,1.27L24.3,13.75A5.45,5.45,0,0,0,24.42,17l-14.1,6.48a5.54,5.54,0,1,0,.58,1.24L25,18.21A5.59,5.59,0,1,0,29.7,9.57ZM5.59,9.81A4.22,4.22,0,1,1,9.81,5.59,4.23,4.23,0,0,1,5.59,9.81Zm0,20.83a4.22,4.22,0,1,1,4.22-4.22A4.23,4.23,0,0,1,5.59,30.64ZM29.7,19.38a4.22,4.22,0,1,1,4.22-4.22A4.23,4.23,0,0,1,29.7,19.38Z"/></g></g></svg>