<svg xmlns="http://www.w3.org/2000/svg" viewBox="0 0 34.69 30.22"><defs><style>.cls-1{fill:#1a1a1a;}</style></defs><title>unfilled_heart</title><g id="Layer_2" data-name="Layer 2"><g id="Layer_1-2" data-name="Layer 1"><path class="cls-1" d="M31.91,2.78a9.55,9.55,0,0,0-13.47,0l-1,1a.07.07,0,0,1-.1,0l-1-1A9.52,9.52,0,0,0,2.79,16.25L16.33,29.79a1.44,1.44,0,0,0,2,0L31.91,16.25a9.55,9.55,0,0,0,0-13.47Zm-1,12.5L17.4,28.83a.07.07,0,0,1-.1,0L3.75,15.28A8.16,8.16,0,0,1,15.29,3.75l1,1a1.44,1.44,0,0,0,2,0l1-1A8.16,8.16,0,0,1,30.94,15.28Z"/></g></g></svg>